<svg xmlns="http://www.w3.org/2000/svg"><symbol id="btn-more-small" viewBox="0 0 15 3"><title>btn-more-small</title><g fill="#4A5D76"><circle cx="1.5" cy="1.5" r="1.5"/><circle cx="7.5" cy="1.5" r="1.5"/><circle cx="13.5" cy="1.5" r="1.5"/></g></symbol><symbol id="ico-arrow-left" viewBox="0 0 6 12"><title>1CDC06E5-C913-4A6F-888F-25A7630D7326</title><path d="M6.2 6c0-.3-.1-.6-.3-.8l-4-4C1.5.8.8.8.5 1.2l-.4.3c-.4.4-.4 1.1 0 1.5l3.1 3L.1 9c-.4.4-.4 1.1 0 1.5l.4.3c.3.4 1 .4 1.4 0l4-4c.2-.2.3-.5.3-.8z" fill="#D8D8D8"/></symbol><symbol id="ico-eye-small" viewBox="0 0 11 9"><title>8635A01E-6466-480E-B2C3-C9AA3696EEA8</title><g fill="#4A5D76"><path d="M5.5 3h.4v.1h.2l.1.1h.1v.1h.2v.1h.1v.1h.1v.2h.1v.1l.1.1v.2H7V4.9h-.1V5.2h-.1v.1h-.1v.2h-.1v.1h-.1v.1h-.2v.1h-.1l-.1.1h-.2V6H5.1v-.1h-.2l-.1-.1h-.1v-.1h-.2v-.1h-.1v-.1h-.1v-.2h-.1v-.1h-.1V4.9H4V4.1h.1v-.2l.1-.1v-.1h.1v-.2h.1v-.1h.1v-.1h.2v-.1h.1l.1-.1h.2V3h.4z"/><path d="M3.1 6.3c.6.5 1.5.9 2.4.9.9 0 1.8-.4 2.4-.9.8-.7 1.4-1.4 1.4-1.9 0-.4-.6-1.1-1.4-1.8-.6-.5-1.5-.9-2.4-.9-.9 0-1.8.4-2.4.9-.8.7-1.4 1.4-1.4 1.8 0 .5.6 1.2 1.4 1.9m2.4 1.6C3 7.9 1 5.5 1 4.4 1 3.4 3 1 5.5 1S10 3.4 10 4.4c0 1.1-2 3.5-4.5 3.5" stroke-width=".2" stroke="#4a5d76"/></g></symbol><symbol id="ico-profile-sm" viewBox="0 0 8 10"><title>701FFBD4-C97D-444C-A090-34EDA2D7B8CD</title><g fill="#FFF"><path d="M4 1.2c.8 0 1.5.7 1.5 1.5s-.7 2-1.5 2c-.9 0-1.5-1.2-1.5-2S3.1 1.2 4 1.2m0-1c.7 0 1.3.3 1.7.7.5.5.8 1.1.8 1.8s-.3 1.4-.7 2c-.5.6-1.1 1-1.8 1-.8 0-1.4-.4-1.8-1-.5-.6-.7-1.3-.7-2s.3-1.3.7-1.8C2.7.5 3.3.2 4 .2M4 6.5h.5l.1.1H4.9l.1.1h.2v.1H5.5v.1h.1l.1.1h.1l.1.1H6v.1h.1l.1.1h.1v.1h.1v.1h.1l.1.1h.1v.1h.1v.1h.1v.1H7V8h.1v.1h.1v.1h.1v.1l.1.1.1.1.1.1.1.1v.1h.1v.1h.1v.2l.1.1-.1.1v.2h-.1v.1h-.1v.1h-.5v-.1h-.1v-.1H7v-.1l-.1-.1-.1-.1-.1-.1-.1-.1-.1-.1-.1-.1v-.1h-.1v-.1h-.1v-.1h-.1L6 8.4l-.1-.1h-.1v-.1h-.1v-.1h-.1L5.5 8h-.1v-.1h-.2v-.1H5v-.1h-.2v-.1h-.4v-.1H3.5v.1H3.2v.1H2.9v.1h-.2v.1h-.1V8h-.2v.1h-.1l-.1.1h-.1v.1H2v.1h-.1v.1h-.1v.1h-.1v.1h-.1v.1h-.1v.1h-.1V9h-.1v.1l-.1.1-.1.1H1v.1l-.1.1v.1H.8l-.1.1H.3l-.1-.1H.1v-.1L0 9.4V9h.1v-.1l.1-.1.1-.1v-.1h.1v-.1l.1-.1h.1v-.1l.1-.1.1-.1h.1V8l.1-.1h.1v-.1h.1v-.1h.1v-.1h.1v-.1h.1l.1-.1.1-.1h.1v-.1h.1l.1-.1h.1V7h.2v-.1h.2v-.1h.2v-.1H3v-.1h.4v-.1H4z"/></g></symbol><symbol id="symbols"/></svg>