<svg xmlns="http://www.w3.org/2000/svg"><defs><path id="b" d="M1 0h640v56H1z"/><filter x="-1.1%" y="-8.9%" width="102.2%" height="125%" filterUnits="objectBoundingBox" id="a"><feOffset dy="2" in="SourceAlpha" result="shadowOffsetOuter1"/><feGaussianBlur stdDeviation="2" in="shadowOffsetOuter1" result="shadowBlurOuter1"/><feColorMatrix values="0 0 0 0 0.0196078431 0 0 0 0 0.0392156863 0 0 0 0 0.062745098 0 0 0 0.1 0" in="shadowBlurOuter1"/></filter><path id="d" d="M0 0h440v306H0z"/><filter x="-1.6%" y="-1.6%" width="103.2%" height="104.6%" filterUnits="objectBoundingBox" id="c"><feOffset dy="2" in="SourceAlpha" result="shadowOffsetOuter1"/><feGaussianBlur stdDeviation="2" in="shadowOffsetOuter1" result="shadowBlurOuter1"/><feColorMatrix values="0 0 0 0 0.0196078431 0 0 0 0 0.0392156863 0 0 0 0 0.062745098 0 0 0 0.1 0" in="shadowBlurOuter1"/></filter></defs><symbol id="btn-more-small" viewBox="0 0 15 3"><title>btn-more-small</title><g fill="#4A5D76"><circle cx="1.5" cy="1.5" r="1.5"/><circle cx="7.5" cy="1.5" r="1.5"/><circle cx="13.5" cy="1.5" r="1.5"/></g></symbol><symbol id="ico-arrow-left" viewBox="0 0 6 12"><title>1CDC06E5-C913-4A6F-888F-25A7630D7326</title><path d="M6.2 6c0-.3-.1-.6-.3-.8l-4-4C1.5.8.8.8.5 1.2l-.4.3c-.4.4-.4 1.1 0 1.5l3.1 3L.1 9c-.4.4-.4 1.1 0 1.5l.4.3c.3.4 1 .4 1.4 0l4-4c.2-.2.3-.5.3-.8z" fill="#D8D8D8"/></symbol><symbol id="ico-drop-down" viewBox="0 0 7 4"><path fill-rule="evenodd" d="M6.334 0c.555 0 .699.336.325.746L4.115 3.537a.904.904 0 0 1-1.36 0L.21.747C-.165.333-.027 0 .535 0h5.8z" opacity=".3"/></symbol><symbol id="ico-eye-small" viewBox="0 0 11 9"><title>8635A01E-6466-480E-B2C3-C9AA3696EEA8</title><g><path d="M5.5 3h.4v.1h.2l.1.1h.1v.1h.2v.1h.1v.1h.1v.2h.1v.1l.1.1v.2H7V4.9h-.1V5.2h-.1v.1h-.1v.2h-.1v.1h-.1v.1h-.2v.1h-.1l-.1.1h-.2V6H5.1v-.1h-.2l-.1-.1h-.1v-.1h-.2v-.1h-.1v-.1h-.1v-.2h-.1v-.1h-.1V4.9H4V4.1h.1v-.2l.1-.1v-.1h.1v-.2h.1v-.1h.1v-.1h.2v-.1h.1l.1-.1h.2V3h.4z"/><path d="M3.1 6.3c.6.5 1.5.9 2.4.9.9 0 1.8-.4 2.4-.9.8-.7 1.4-1.4 1.4-1.9 0-.4-.6-1.1-1.4-1.8-.6-.5-1.5-.9-2.4-.9-.9 0-1.8.4-2.4.9-.8.7-1.4 1.4-1.4 1.8 0 .5.6 1.2 1.4 1.9m2.4 1.6C3 7.9 1 5.5 1 4.4 1 3.4 3 1 5.5 1S10 3.4 10 4.4c0 1.1-2 3.5-4.5 3.5" stroke-width=".2" stroke="#4a5d76"/></g></symbol><symbol id="ico-mobile" viewBox="0 0 15 22"><title>icoMobile</title><g fill-rule="evenodd"><path d="M7.39 18.302c.508 0 .924-.427.924-.95 0-.523-.416-.95-.924-.95-.509 0-.924.427-.924.95 0 .523.415.95.924.95"/><path d="M11.132.242h.048l.048.004.047.003h.047l.047.006.047.003.046.003.047.007.046.006.046.006.046.007.046.006.045.01.046.006.045.01.045.009.045.013.044.01.045.012.044.012.044.013.044.013.043.012.043.013.043.016.043.016.043.016.042.016.042.015.042.02.041.015.042.02.04.018.041.02.041.018.04.022.04.02.04.022.04.022.038.022.04.022.038.022.038.026.038.022.038.025.037.026.037.025.037.025.036.029.036.025.036.029.035.025.035.028.035.029.034.029.035.028.033.032.034.028.033.032.032.032.033.031.031.032.032.032.031.031.03.032.031.035.03.032.03.034.029.035.029.035.028.035.028.035.028.035.027.038.027.035.026.038.027.038.025.034.025.038.025.038.024.039.024.04.023.039.023.038.023.04.022.042.021.038.021.041.021.042.02.04.02.042.02.041.018.041.018.045.018.04.017.045.017.041.016.045.016.044.016.041.014.045.014.044.014.044.014.045.012.047.013.045.011.044.011.047.01.045.01.047.01.045.01.047.008.048.008.044.007.048.007.047.006.048.006.047.004.048.005.05.004.048.003.048.003.047.002.05.001.048.001.05V17.45l-.002.048-.002.05-.003.048-.003.047-.004.048-.005.05-.004.048-.006.048-.006.047-.007.048-.007.047-.008.044-.009.048-.009.048-.01.044-.01.047-.01.045-.01.047-.012.045-.013.044-.012.048-.014.044-.014.044-.014.045-.014.044-.016.041-.016.045-.016.044-.017.041-.017.044-.018.042-.018.044-.019.041-.019.041-.02.042-.02.04-.02.042-.022.041-.021.038-.022.041-.023.041-.023.039-.023.038-.024.04-.024.039-.025.038-.025.038-.025.035-.027.038-.026.038-.027.035-.027.038-.028.034-.028.035-.028.035-.029.035-.03.035-.029.035-.03.031-.03.035-.03.032-.032.032-.032.031-.031.032-.033.032-.032.031-.033.032-.034.029-.033.031-.035.029-.034.028-.035.029-.035.028-.035.026-.036.028-.036.025-.036.029-.037.025-.037.026-.037.025-.038.025-.038.023-.038.025-.039.022-.039.022-.039.022-.04.023-.039.022-.04.019-.04.022-.04.019-.041.019-.041.019-.042.019-.041.016-.042.019-.042.016-.042.016-.043.015-.043.016-.043.016-.043.013-.043.012-.044.013-.044.013-.044.012-.045.013-.044.01-.045.012-.045.01-.045.01-.046.006-.045.01-.046.005-.046.007-.046.006-.046.006-.047.007-.046.003-.047.003-.047.007h-.047l-.047.003-.048.003H3.6l-.047-.003-.047-.003h-.047l-.047-.007-.047-.003-.047-.003-.046-.007-.046-.006-.046-.006-.046-.007-.046-.006-.046-.01-.045-.006-.045-.01-.045-.009-.045-.012-.045-.01-.044-.013-.044-.012-.044-.013-.044-.013-.043-.012-.044-.013-.043-.016-.042-.016-.043-.015-.042-.016-.042-.016-.042-.02-.042-.015-.041-.019-.041-.019-.04-.019-.042-.019-.04-.022-.04-.02-.04-.021-.039-.023-.039-.022-.039-.022-.038-.022-.038-.025-.038-.023-.038-.025-.037-.025-.037-.026-.037-.025-.037-.029-.036-.025-.035-.028-.036-.026-.035-.028-.035-.029-.034-.028-.034-.029-.033-.031-.034-.029-.033-.032-.033-.031-.032-.032-.032-.032-.031-.031-.031-.032-.031-.032-.03-.035-.03-.031-.03-.035-.03-.035-.028-.035-.029-.035-.028-.035L.79 19.7l-.028-.038-.027-.035-.026-.038-.026-.038-.026-.035-.024-.038-.025-.038-.024-.038-.024-.041-.024-.038-.023-.039-.022-.04-.022-.042-.022-.038-.02-.041-.021-.041-.02-.041-.02-.042-.02-.04-.018-.042-.019-.044-.017-.042-.018-.044-.017-.041-.016-.044-.016-.045-.015-.041-.015-.044-.014-.045-.014-.044-.013-.044-.013-.048-.012-.044-.012-.045-.01-.047-.011-.045-.01-.047-.01-.044-.009-.048-.008-.048-.008-.044-.008-.047-.006-.048-.006-.047-.006-.048-.005-.048-.004-.05-.004-.048-.004-.047-.002-.048-.002-.05L0 17.45v-.05L0 17.351V3.997l.001-.05.002-.048.002-.051.002-.047.004-.048.004-.048.004-.05.005-.048.006-.047.006-.048.006-.047.008-.048.008-.044.008-.048.01-.047.009-.045.01-.047.01-.045.011-.047.012-.044.012-.045.013-.047.013-.045.014-.044.014-.044.015-.045.015-.04.016-.045.016-.045.017-.04.018-.045.017-.041.019-.045.018-.04.02-.042.02-.041.02-.041.02-.042.021-.04.022-.039.022-.041.022-.041.023-.038.024-.038.024-.041.024-.039.025-.038.024-.038.026-.034.026-.038.026-.038.027-.035.028-.038.027-.035.028-.035.029-.035.029-.035.029-.035.03-.034.03-.032.03-.035.03-.032.032-.031.031-.032.032-.032.032-.031.033-.032.033-.032.034-.028.033-.032.034-.028.034-.029.035-.029.035-.028L1.485 1 1.52.97l.036-.025.037-.029.037-.025.037-.025.037-.026.038-.025.038-.022.038-.026.038-.022.04-.022.038-.022.04-.022.04-.023.04-.019.04-.022.04-.019.04-.019.042-.019.041-.019L2.3.524 2.34.505 2.383.49l.042-.016.043-.016.042-.016.043-.016.044-.013.043-.012.044-.013.044-.013.044-.012.044-.013.045-.01.045-.012.045-.01.045-.01.045-.005.046-.01.046-.006.046-.007.046-.006.046-.006.046-.007.047-.003.047-.003.047-.006h.047l.047-.003.047-.004H11.132zM3.701 2.143h-.078l-.024.004h-.024l-.024.003h-.023l-.024.003-.023.003-.023.003-.023.003-.023.004-.023.003-.023.003-.022.006-.023.003-.022.007-.022.003-.022.006-.022.007-.022.006-.022.006-.022.007-.021.006-.022.006-.021.007-.021.01-.021.005-.021.01-.021.006-.02.01-.022.01-.02.009-.02.01-.021.009-.02.01-.02.009-.02.01-.02.012-.02.01-.019.012-.02.01-.019.012-.019.013-.019.01-.019.012-.018.013-.019.013-.018.012-.018.013-.019.016-.018.012-.018.013-.017.016-.017.013-.018.015-.017.016-.017.013-.017.016-.016.016-.017.016-.016.015-.016.016-.016.016-.016.016-.015.016-.015.019-.016.016-.015.015-.014.02-.015.015-.014.02-.014.015-.014.02-.014.018-.013.02-.013.015-.013.019-.013.019-.013.02-.012.018-.013.02-.012.018-.011.022-.012.02-.01.018-.012.02-.01.021-.011.02-.01.022-.01.019-.01.019-.01.022-.01.022-.008.02-.01.021-.008.022-.008.02-.008.022-.008.022-.007.022-.008.022-.007.022-.007.022-.006.023-.007.022-.006.022-.005.022-.006.022-.005.023-.005.022-.005.025-.004.022-.005.022-.004.026-.003.022-.003.025-.003.023-.003.022-.003.025-.002.025-.002.023-.002.025-.001.025-.001.022v.026l-.001.025V17.402l.001.026v.022l.002.025.002.026.002.022.002.025.003.026.003.022.003.022.003.025.003.022.004.026.005.022.004.022.005.025.005.023.005.022.006.022.005.022.006.022.007.023.006.022.007.022.007.022.008.022.007.022.008.023.008.022.008.019.009.022.009.022.009.02.01.021.009.023.01.019.01.019.01.022.01.019.011.022.011.019.011.019.012.019.011.022.012.02.013.018.012.02.013.018.013.02.013.018.013.016.013.02.014.018.014.02.014.015.014.019.015.016.014.019.015.016.016.015.015.02.015.015.016.016.016.016.016.016.016.016.017.016.016.015.017.016.017.013.017.016.018.016.017.012.017.016.018.013.018.012.018.016.019.013.018.013.019.012.019.013.018.013.02.01.018.012.02.013.019.009.02.013.02.01.02.012.019.01.02.009.02.01.02.009.02.01.021.009.021.01.02.009.022.006.02.01.022.006.021.01.021.006.022.006.021.007.022.006.022.006.022.007.022.006.022.006.022.003.022.007.023.003.022.006.023.003.023.004.023.003.023.003.023.003.023.003.024.003h.023l.024.004h.024l.024.003H11.157l.024-.003h.024l.023-.004h.024l.024-.003.023-.003.023-.003.023-.003.023-.003.022-.004.023-.003.023-.006.022-.003.023-.007.022-.003.022-.006.022-.006.022-.007.022-.006.021-.006.022-.007.021-.006.021-.006.022-.01.021-.006.02-.01.022-.006.02-.01.021-.01.02-.009.021-.01.02-.009.02-.01.02-.009.02-.01.02-.012.02-.01.02-.012.019-.01.02-.012.018-.013.02-.01.018-.012.019-.013.019-.012.018-.013.018-.013.018-.016.018-.012.018-.013.018-.016.017-.012.017-.016.018-.016.016-.013.017-.016.017-.015.016-.016.017-.016.016-.016.016-.016.015-.016.016-.016.015-.019.015-.015.015-.016.015-.02.014-.015.015-.02.014-.015.014-.019.013-.019.014-.019.013-.016.013-.019.013-.019.012-.019.013-.019.012-.019.012-.019.012-.022.011-.019.011-.02.011-.018.011-.022.01-.02.011-.021.01-.02.01-.018.01-.023.009-.022.009-.019.009-.022.008-.022.009-.02.008-.021.008-.023.007-.022.007-.022.008-.022.006-.022.007-.022.006-.023.006-.022.006-.022.005-.022.006-.022.005-.023.005-.025.004-.022.004-.022.004-.026.004-.022.003-.022.003-.025.003-.026.003-.022.002-.025.002-.022.001-.026.002-.025v-.022l.002-.026V3.994l-.001-.026-.001-.022-.002-.025-.001-.025-.002-.023-.002-.025-.003-.022-.003-.025-.003-.026-.003-.022-.004-.022-.004-.026-.004-.022-.004-.022-.005-.025-.005-.022-.006-.023-.005-.022-.006-.022-.006-.022-.006-.022-.007-.023-.006-.022-.008-.022-.007-.022-.007-.022-.008-.022-.008-.023-.009-.019-.008-.022-.01-.022-.008-.019-.01-.022-.01-.022-.01-.02-.009-.018-.01-.023-.01-.019-.012-.022-.01-.019-.012-.019-.011-.019-.012-.022-.012-.019-.012-.019-.013-.019-.012-.019-.013-.019-.013-.019-.013-.016-.014-.019-.013-.019-.014-.019-.014-.016-.015-.019-.014-.016-.015-.019-.015-.015-.015-.016-.015-.02-.016-.015-.015-.016-.016-.016-.016-.016-.017-.015-.016-.016-.017-.016-.016-.016-.017-.013-.018-.016-.017-.015-.017-.013-.018-.016-.018-.013-.018-.012-.018-.016-.018-.013-.018-.012-.02-.013-.018-.013-.018-.012-.02-.01-.019-.013-.019-.012-.02-.01-.02-.012-.019-.01-.02-.013-.02-.01-.02-.009-.02-.01-.02-.009-.02-.01-.02-.009-.022-.01-.02-.009-.021-.006-.021-.01-.021-.006-.022-.01-.02-.006-.022-.006-.022-.006-.021-.007-.022-.006-.022-.006-.022-.007-.022-.006-.022-.003-.023-.007-.022-.003-.023-.006-.023-.003-.022-.003-.023-.004-.023-.003-.023-.003-.024-.003-.023-.003h-.024l-.023-.003h-.024l-.024-.004H3.701z"/><path d="M10.659 3.094l.035.003h.035l.035.003.035.007.035.003.034.006.034.006.034.01.033.006.033.01.033.01.032.012.032.01.032.012.031.013.03.016.031.012.03.016.03.016.03.02.028.015.029.019.027.019.028.019.027.019.026.022.026.022.025.022.025.023.025.022.023.025.024.026.022.022.022.028.022.026.02.025.021.028.02.029.019.025.018.032.018.028.017.029.016.032.016.028.015.032.014.032.013.031.013.032.012.032.011.034.011.032.01.035.009.035.008.032.007.034.007.035.005.038.005.035.004.035.003.035.003.038.001.035V13.746l-.001.035-.003.038-.003.035-.004.035-.005.035-.005.038-.007.034-.007.035-.008.032-.01.035-.009.035-.01.031-.012.035-.012.032-.013.032-.013.031-.014.032-.015.032-.016.028-.016.032-.017.028-.018.029-.018.032-.02.025-.019.028-.02.029-.021.025-.022.026-.022.028-.022.022-.024.026-.023.025-.025.022-.025.022-.025.023-.026.022-.026.022-.027.019-.028.019-.027.019-.029.019-.029.016-.029.019-.03.016-.03.015-.03.013-.031.016-.031.013-.032.012-.032.01-.032.013-.033.009-.033.01-.033.006-.034.01-.034.006-.034.006-.035.003-.035.007-.035.003h-.035l-.035.003H4.12l-.035-.003H4.05l-.035-.003-.035-.007-.034-.003-.034-.006-.034-.007-.034-.01-.033-.005-.033-.01-.033-.01-.033-.012-.032-.01-.031-.012-.031-.013-.031-.016-.03-.013-.03-.015-.03-.016-.03-.02-.029-.015-.028-.02-.028-.018-.027-.02-.027-.018-.027-.022-.025-.022-.026-.023-.025-.022-.024-.022-.024-.025-.023-.026-.023-.022-.022-.028-.021-.026-.021-.025-.02-.029-.02-.028-.019-.025-.019-.032-.017-.029-.017-.028-.017-.032-.015-.028-.015-.032-.014-.032-.014-.031-.013-.032-.012-.032-.01-.035-.012-.031-.01-.035-.008-.035-.008-.032-.008-.035-.006-.034-.006-.038-.005-.035-.004-.035-.003-.035-.002-.038-.002-.035V4.482l.002-.035.002-.038.003-.035.004-.035.005-.035.006-.038.006-.035.008-.034.008-.032.009-.035.01-.035.01-.032.011-.034.012-.032.013-.032.014-.031.014-.032.015-.032.015-.028.017-.032.017-.029.017-.028.019-.032.019-.025.02-.029.02-.028.02-.025.022-.026.022-.028.023-.022.023-.026.024-.025.024-.022.025-.023.026-.022.025-.022.027-.022.027-.02.027-.018.028-.02.028-.018.03-.016.029-.019.03-.016.03-.016.03-.012.03-.016.032-.013.031-.013.032-.009.033-.013.033-.01.033-.009.033-.006.034-.01.034-.006.034-.006.034-.003.035-.007.035-.003h.036l.035-.003H10.659zM4.164 4.36h-.028l-.004.003h-.011l-.003.004h-.007l-.003.003H4.1l-.003.003h-.003l-.004.003h-.003l-.003.003H4.08l-.003.003-.003.004h-.003l-.003.003-.003.003h-.003l-.004.003-.002.003-.003.003-.003.004-.003.003-.003.003-.002.003H4.04l-.002.007h-.003l-.002.003-.002.003-.002.003-.002.003-.003.007-.001.003-.002.003-.002.003-.002.003-.001.003-.001.004-.002.003-.001.003-.001.003-.001.003-.001.003-.001.004-.001.003v.006l-.002.003v.003l-.001.004v.019l-.001.012v9.198l.001.003v.003l.001.004.001.003v.006l.002.003v.003l.002.004v.003l.002.003.001.003.002.003.001.003.001.004.002.003.002.003.002.003.001.003.003.007.002.003.002.003.002.003.002.003h.003l.002.007h.003l.002.003.003.003.003.003.003.003.003.003.003.004.003.003h.003l.003.003.003.003h.003l.003.003.004.004h.003l.003.003h.003l.004.003h.003l.003.003h.006l.004.003h.007l.003.003h.011l.004.004H10.644l.003-.004h.011l.004-.003h.007l.003-.003h.007l.003-.003h.003l.003-.003h.004l.003-.003h.003l.003-.004.003-.003h.004l.003-.003.003-.003h.003l.003-.003.003-.004.003-.003.002-.003.003-.003.003-.003.003-.003h.002l.003-.007h.002l.003-.003.002-.003.002-.003.002-.003.002-.007.002-.003.002-.003.002-.003.001-.003.002-.004.001-.003.002-.003v-.003l.002-.003.001-.003v-.004l.002-.003v-.003l.001-.006.001-.003v-.004l.001-.003v-.003l.001-.006V4.498l-.001-.004v-.003l-.002-.003v-.006l-.001-.003-.001-.004-.001-.003-.001-.003-.001-.003-.001-.003-.002-.003-.001-.004-.002-.003-.001-.003-.002-.003-.002-.003-.002-.003-.002-.007-.002-.003-.002-.003-.002-.003-.003-.003h-.002l-.003-.007h-.002l-.003-.003-.002-.003-.004-.003-.002-.004-.003-.003-.003-.003-.003-.003h-.003l-.003-.003-.003-.003h-.004l-.003-.004-.003-.003h-.003l-.003-.003h-.004l-.003-.003h-.003l-.003-.003h-.007l-.003-.003h-.007l-.004-.004h-.011l-.003-.003H4.165z"/></g></symbol><symbol id="ico-profile-sm" viewBox="0 0 8 10"><title>701FFBD4-C97D-444C-A090-34EDA2D7B8CD</title><g fill="#FFF"><path d="M4 1.2c.8 0 1.5.7 1.5 1.5s-.7 2-1.5 2c-.9 0-1.5-1.2-1.5-2S3.1 1.2 4 1.2m0-1c.7 0 1.3.3 1.7.7.5.5.8 1.1.8 1.8s-.3 1.4-.7 2c-.5.6-1.1 1-1.8 1-.8 0-1.4-.4-1.8-1-.5-.6-.7-1.3-.7-2s.3-1.3.7-1.8C2.7.5 3.3.2 4 .2M4 6.5h.5l.1.1H4.9l.1.1h.2v.1H5.5v.1h.1l.1.1h.1l.1.1H6v.1h.1l.1.1h.1v.1h.1v.1h.1l.1.1h.1v.1h.1v.1h.1v.1H7V8h.1v.1h.1v.1h.1v.1l.1.1.1.1.1.1.1.1v.1h.1v.1h.1v.2l.1.1-.1.1v.2h-.1v.1h-.1v.1h-.5v-.1h-.1v-.1H7v-.1l-.1-.1-.1-.1-.1-.1-.1-.1-.1-.1-.1-.1v-.1h-.1v-.1h-.1v-.1h-.1L6 8.4l-.1-.1h-.1v-.1h-.1v-.1h-.1L5.5 8h-.1v-.1h-.2v-.1H5v-.1h-.2v-.1h-.4v-.1H3.5v.1H3.2v.1H2.9v.1h-.2v.1h-.1V8h-.2v.1h-.1l-.1.1h-.1v.1H2v.1h-.1v.1h-.1v.1h-.1v.1h-.1v.1h-.1v.1h-.1V9h-.1v.1l-.1.1-.1.1H1v.1l-.1.1v.1H.8l-.1.1H.3l-.1-.1H.1v-.1L0 9.4V9h.1v-.1l.1-.1.1-.1v-.1h.1v-.1l.1-.1h.1v-.1l.1-.1.1-.1h.1V8l.1-.1h.1v-.1h.1v-.1h.1v-.1h.1v-.1h.1l.1-.1.1-.1h.1v-.1h.1l.1-.1h.1V7h.2v-.1h.2v-.1h.2v-.1H3v-.1h.4v-.1H4z"/></g></symbol><symbol id="ico-search" viewBox="0 0 21 20"><path d="M14.1 3.7C12.7 2.3 10.8 1.6 9 1.6c-1.9 0-3.8.7-5.2 2.1C2.4 5.1 1.7 7 1.7 8.8c0 1.9.7 3.7 2.1 5.1 1.4 1.4 3.3 2.2 5.2 2.2 1.8 0 3.7-.8 5.1-2.2 1.4-1.4 2.1-3.2 2.1-5.1 0-1.8-.7-3.7-2.1-5.1m1.1-1.1c3.4 3.4 3.4 9 0 12.5-3.5 3.4-9 3.4-12.5 0C-.7 11.6-.7 6 2.7 2.6c3.5-3.5 9-3.5 12.5 0"/><path d="M15 14.1H15.3v.1h.2v.1h.1l4.2 4.3h.1v.1l.1.1v.2h.1V19.3H20v.2l-.1.1v.1h-.1v.1h-.1l-.1.1h-.7v-.1h-.1l-.1-.1-4.3-4.3v-.1h-.1v-.2h-.1v-.5h.1v-.2h.1v-.1h.1v-.1h.1l.1-.1H15zM15.2 6.7c.1.2-.1.5-.4.6-.2.1-.5 0-.6-.3-.2-.4-.3-.8-.6-1.1-.2-.4-.4-.7-.7-1-1.1-1.1-2.5-1.6-3.9-1.6-1.5 0-2.9.5-4 1.6-.2.2-.5.2-.7 0-.2-.2-.2-.5 0-.7 1.3-1.3 3-2 4.7-2 1.6 0 3.3.7 4.6 2 .4.3.7.7.9 1.1.3.4.5.9.7 1.4"/></symbol><symbol id="ico-side-bar" viewBox="0 0 16 12"><title>0C0AD14C-D38F-4CD5-8299-2E6AE87D3947</title><g fill-rule="evenodd"><rect width="16" height="1.714" rx=".857"/><rect y="5.143" width="16" height="1.714" rx=".857"/><rect y="10.286" width="16" height="1.714" rx=".857"/></g></symbol><symbol id="sprite"/></svg>
